<svg xmlns="http://www.w3.org/2000/svg" version="1.1" xmlns:xlink="http://www.w3.org/1999/xlink" width="512" height="512"><svg xmlns="http://www.w3.org/2000/svg" version="1.1" xmlns:xlink="http://www.w3.org/1999/xlink" width="512" height="512"><svg id="Layer_1" data-name="Layer 1" xmlns="http://www.w3.org/2000/svg" viewBox="0 0 512 512">
  <defs>
    <style>
      .cls-1 {
        opacity: .75;
      }

      .cls-2 {
        fill: red;
      }

      .cls-3 {
        fill: aqua;
      }
    </style>
  </defs>
  <g class="cls-1">
    <path class="cls-3" d="M246.51,328.64s13.88,48.62,48.23,90.35c27.34,33.22,39.15,33.13,39.15,33.13l140.65-1.55s-63.77-4.93-90.37-51.72c-28.05-43-49.3-94.24-45.8-99.31l-91.86,29.11Z"></path>
    <path class="cls-3" d="M300.92,173.14l40.31,93.16s38.62,96.57,57.5,119.77c26.6,32.69,40.9,41.87,81.05,53.74,0,0,28.47-35.04,10.74-77.42-17.73-42.39-103.45-276.76-103.45-276.76,0,0-49.18,23.32-66.04,46.08-16.26,21.94-10.75,9.64-20.11,41.44Z"></path>
    <path class="cls-3" d="M245.35,77.57h127.12s-61.2,14.74-81.3,65.83c0,0-20.48,38.51-27.76,78.82-7.28,40.3-18.06,108.32-42.35,153.11,0,0-33.4,50.89-93.68,79.11l-71.71-61.59s59.43-30.04,78.48-78.87c20.09-51.5,33.16-112.85,40.65-139.27,7.5-26.42,14.02-52.84,70.56-97.13Z"></path>
  </g>
  <g class="cls-1">
    <path class="cls-2" d="M206.51,308.64s13.88,48.62,48.23,90.35c27.34,33.22,39.15,33.13,39.15,33.13l140.65-1.55s-63.77-4.93-90.37-51.72c-28.05-43-49.3-94.24-45.8-99.31l-91.86,29.11Z"></path>
    <path class="cls-2" d="M260.92,153.14l40.31,93.16s38.62,96.57,57.5,119.77c26.6,32.69,40.9,41.87,81.05,53.74,0,0,28.47-35.04,10.74-77.42-17.73-42.39-103.45-276.76-103.45-276.76,0,0-49.18,23.32-66.04,46.08-16.26,21.94-10.75,9.64-20.11,41.44Z"></path>
    <path class="cls-2" d="M205.35,57.57h127.12s-61.2,14.74-81.3,65.83c0,0-20.48,38.51-27.76,78.82-7.28,40.3-18.06,108.32-42.35,153.11,0,0-33.4,50.89-93.68,79.11l-71.71-61.59s59.43-30.04,78.48-78.87c20.09-51.5,33.16-112.85,40.65-139.27,7.5-26.42,14.02-52.84,70.56-97.13Z"></path>
  </g>
  <g>
    <path d="M226.51,318.64s13.88,48.62,48.23,90.35c27.34,33.22,39.15,33.13,39.15,33.13l140.65-1.55s-63.77-4.93-90.37-51.72c-28.05-43-49.3-94.24-45.8-99.31l-91.86,29.11Z"></path>
    <path d="M280.92,163.14l40.31,93.16s38.62,96.57,57.5,119.77c26.6,32.69,40.9,41.87,81.05,53.74,0,0,28.47-35.04,10.74-77.42-17.73-42.39-103.45-276.76-103.45-276.76,0,0-49.18,23.32-66.04,46.08-16.26,21.94-10.75,9.64-20.11,41.44Z"></path>
    <path d="M225.35,67.57h127.12s-61.2,14.74-81.3,65.83c0,0-20.48,38.51-27.76,78.82-7.28,40.3-18.06,108.32-42.35,153.11,0,0-33.4,50.89-93.68,79.11l-71.71-61.59s59.43-30.04,78.48-78.87c20.09-51.5,33.16-112.85,40.65-139.27,7.5-26.42,14.02-52.84,70.56-97.13Z"></path>
  </g>
</svg></svg><style>@media (prefers-color-scheme: light) { :root { filter: none; } }
@media (prefers-color-scheme: dark) { :root { filter: none; } }
</style></svg>